HIERARCHY
ROOT hip
{
  OFFSET 0 0 0
  CHANNELS 6 Xposition Yposition Zposition Zrotation Yrotation Xrotation
  JOINT abdomen
  {
    OFFSET 0 20.6881 -0.73152
    CHANNELS 3 Zrotation Xrotation Yrotation
    JOINT chest
    {
      OFFSET 0 11.7043 -0.48768
      CHANNELS 3 Zrotation Xrotation Yrotation
      JOINT neck
      {
        OFFSET 0 22.1894 -2.19456
        CHANNELS 3 Zrotation Xrotation Yrotation
        JOINT head
        {
          OFFSET -0.24384 7.07133 1.2192
          CHANNELS 3 Zrotation Xrotation Yrotation
          JOINT leftEye
          {
            OFFSET 4.14528 8.04674 8.04672
            CHANNELS 3 Zrotation Xrotation Yrotation
            End Site
            {
              OFFSET 1 0 0
            }
          }
          JOINT rightEye
          {
            OFFSET -3.6576 8.04674 8.04672
            CHANNELS 3 Zrotation Xrotation Yrotation
            End Site
            {
              OFFSET 1 0 0
            }
          }
        }
      }
      JOINT rCollar
      {
        OFFSET -2.68224 19.2634 -4.8768
        CHANNELS 3 Zrotation Xrotation Yrotation
        JOINT rShldr
        {
          OFFSET -8.77824 -1.95073 1.46304
          CHANNELS 3 Zrotation Xrotation Yrotation
          JOINT rForeArm
          {
            OFFSET -28.1742 -1.7115 0.48768
            CHANNELS 3 Zrotation Xrotation Yrotation
            JOINT rHand
            {
              OFFSET -22.5879 0.773209 7.07136
              CHANNELS 3 Zrotation Xrotation Yrotation
              JOINT rThumb1
              {
                OFFSET -1.2192 -0.487915 3.41376
                CHANNELS 3 Zrotation Xrotation Yrotation
                JOINT rThumb2
                {
                  OFFSET -3.37035 -0.52449 3.41376
                  CHANNELS 3 Zrotation Xrotation Yrotation
                  End Site
                  {
                    OFFSET -1.78271 -1.18214 1.43049
                  }
                }
              }
              JOINT rIndex1
              {
                OFFSET -7.75947 0.938293 5.60832
                CHANNELS 3 Zrotation Xrotation Yrotation
                JOINT rIndex2
                {
                  OFFSET -2.54057 -0.884171 1.56538
                  CHANNELS 3 Zrotation Xrotation Yrotation
                  End Site
                  {
                    OFFSET -1.62519 -0.234802 1.16502
                  }
                }
              }
              JOINT rMid1
              {
                OFFSET -8.24714 1.18213 3.41376
                CHANNELS 3 Zrotation Xrotation Yrotation
                JOINT rMid2
                {
                  OFFSET -3.10165 -0.590103 1.0647
                  CHANNELS 3 Zrotation Xrotation Yrotation
                  End Site
                  {
                    OFFSET -2.48547 -0.328903 0.83742
                  }
                }
              }
              JOINT rRing1
              {
                OFFSET -8.82822 0.546677 1.51678
                CHANNELS 3 Zrotation Xrotation Yrotation
                JOINT rRing2
                {
                  OFFSET -2.60934 -0.819778 -0.0198488
                  CHANNELS 3 Zrotation Xrotation Yrotation
                  End Site
                  {
                    OFFSET -2.33842 -0.294052 0.168128
                  }
                }
              }
              JOINT rPinky1
              {
                OFFSET -8.27202 -0.0477905 -0.4584
                CHANNELS 3 Zrotation Xrotation Yrotation
                JOINT rPinky2
                {
                  OFFSET -1.82734 -0.647385 -0.700984
                  CHANNELS 3 Zrotation Xrotation Yrotation
                  End Site
                  {
                    OFFSET -1.69225 -0.51767 -0.607171
                  }
                }
              }
            }
          }
        }
      }
      JOINT lCollar
      {
        OFFSET 2.68224 19.2634 -4.8768
        CHANNELS 3 Zrotation Xrotation Yrotation
        JOINT lShldr
        {
          OFFSET 8.77824 -1.95073 1.46304
          CHANNELS 3 Zrotation Xrotation Yrotation
          JOINT lForeArm
          {
            OFFSET 28.1742 -1.7115 0.48768
            CHANNELS 3 Zrotation Xrotation Yrotation
            JOINT lHand
            {
              OFFSET 22.5879 0.773209 7.07136
              CHANNELS 3 Zrotation Xrotation Yrotation
              JOINT lThumb1
              {
                OFFSET 1.2192 -0.487915 3.41376
                CHANNELS 3 Zrotation Xrotation Yrotation
                JOINT lThumb2
                {
                  OFFSET 3.37035 -0.52449 3.41376
                  CHANNELS 3 Zrotation Xrotation Yrotation
                  End Site
                  {
                    OFFSET 1.78271 -1.18214 1.43049
                  }
                }
              }
              JOINT lIndex1
              {
                OFFSET 7.75947 0.938293 5.60832
                CHANNELS 3 Zrotation Xrotation Yrotation
                JOINT lIndex2
                {
                  OFFSET 2.54057 -0.884171 1.56538
                  CHANNELS 3 Zrotation Xrotation Yrotation
                  End Site
                  {
                    OFFSET 1.62519 -0.234802 1.16502
                  }
                }
              }
              JOINT lMid1
              {
                OFFSET 8.24714 1.18213 3.41376
                CHANNELS 3 Zrotation Xrotation Yrotation
                JOINT lMid2
                {
                  OFFSET 3.10165 -0.590103 1.0647
                  CHANNELS 3 Zrotation Xrotation Yrotation
                  End Site
                  {
                    OFFSET 2.48547 -0.328903 0.83742
                  }
                }
              }
              JOINT lRing1
              {
                OFFSET 8.82822 0.546677 1.51678
                CHANNELS 3 Zrotation Xrotation Yrotation
                JOINT lRing2
                {
                  OFFSET 2.60934 -0.819778 -0.0198488
                  CHANNELS 3 Zrotation Xrotation Yrotation
                  End Site
                  {
                    OFFSET 2.33842 -0.294052 0.168128
                  }
                }
              }
              JOINT lPinky1
              {
                OFFSET 8.27202 -0.0477905 -0.4584
                CHANNELS 3 Zrotation Xrotation Yrotation
                JOINT lPinky2
                {
                  OFFSET 1.82734 -0.647385 -0.700984
                  CHANNELS 3 Zrotation Xrotation Yrotation
                  End Site
                  {
                    OFFSET 1.69225 -0.51767 -0.607171
                  }
                }
              }
            }
          }
        }
      }
    }
  }
  JOINT rButtock
  {
    OFFSET -8.77824 4.35084 1.2192
    CHANNELS 3 Zrotation Xrotation Yrotation
    JOINT rThigh
    {
      OFFSET 0 -1.70687 -2.19456
      CHANNELS 3 Zrotation Xrotation Yrotation
      JOINT rShin
      {
        OFFSET 0 -36.8199 0.73152
        CHANNELS 3 Zrotation Xrotation Yrotation
        JOINT rFoot
        {
          OFFSET 0.73152 -45.1104 -5.12064
          CHANNELS 3 Zrotation Xrotation Yrotation
          End Site
          {
            OFFSET -1.1221 -3.69964 12.103
          }
        }
      }
    }
  }
  JOINT lButtock
  {
    OFFSET 8.77824 4.35084 1.2192
    CHANNELS 3 Zrotation Xrotation Yrotation
    JOINT lThigh
    {
      OFFSET 0 -1.70687 -2.19456
      CHANNELS 3 Zrotation Xrotation Yrotation
      JOINT lShin
      {
        OFFSET 0 -36.8199 0.73152
        CHANNELS 3 Zrotation Xrotation Yrotation
        JOINT lFoot
        {
          OFFSET -0.73152 -45.1104 -5.12064
          CHANNELS 3 Zrotation Xrotation Yrotation
          End Site
          {
            OFFSET 1.1221 -3.69964 12.103
          }
        }
      }
    }
  }
}
MOTION
Frames:	8
Frame Time:	0.03333
9.4936 74.0637 -12.6759 0.669638 1.67011 10.346667 -2.042996 7.367098 -96.681991 6.821238 -0.099472 110.903626 -10.800117 26.572498 -63.997061 41.190534 -13.221586 37.18382 -27.848579 0.694471 -2.80061 -20.621357 6.035897 -32.323481 -76.429358 72.856961 82.769786 139.354046 -12.841905 138.973878 -167.389689 85.847838 -92.512686 -11.255281 30.455815 1.266593 62.905421 -36.55105 17.250225 -148.016229 8.040451 104.542596 54.932681 -61.653157 19.88154 -38.041249 67.044319 20.959471 -157.52122 -10.366356 132.23816 -46.102863 50.814245 50.391094 -146.783162 -5.207562 -176.23406 20.889767 61.842955 -22.809862 -28.617663 76.753833 81.299793 -13.972302 -23.680597 -46.202637 -5.673798 -26.009801 -4.781766 95.027194 -16.125104 150.79514 178.044559 -13.406001 79.610903 3.489413 11.091796 1.569858 96.700746 36.807679 -52.480926 135.929108 -32.0392 -82.813719 -173.137623 -46.236663 -116.236235 -119.562191 -67.72604 -73.926602 172.553269 1.379389 -147.671186 7.823847 -14.323919 4.781742 136.487142 73.472901 -138.191177 130.591414 56.924631 -119.590666 13.473485 -1.781132 -2.315177 166.452524 56.851642 138.59223 0.44392 -8.85696 2.88082 7.515871 -37.757488 -180.0 19.777015 -67.493773 117.203575 -48.430794 -72.474186 39.30872 -7.618417 -1.836638 -3.735203 2.471591 -48.726134 -180.0 -35.237975 -80.127931 -68.180366 -10.747543 26.41998 -128.888855
9.6259 74.3462 -12.3175 0.752907 1.339339 9.886887 -3.394675 9.531904 -36.086544 5.533405 -6.923636 51.043444 -11.999932 28.116768 -75.071294 43.851712 -4.299796 45.424467 -29.561413 0.964939 -3.65598 -21.233267 5.360269 -28.043699 -59.986987 -82.090745 -84.732365 -63.468492 -57.843052 -112.425989 139.894856 -48.772236 -114.623002 -27.812002 56.272859 12.690562 -81.004647 33.695409 51.970765 176.688703 -59.622815 86.074553 -161.526917 -21.191564 114.593934 -8.423501 -3.355393 -2.191961 -79.940489 50.287173 77.13657 -141.818833 37.237023 143.180277 -63.414435 73.875787 78.748938 -170.19598 -16.014663 165.519106 16.733953 50.493227 26.113173 -6.531662 2.583546 -28.785884 7.979478 16.12939 -13.532498 98.041106 -17.020382 -168.081262 89.83054 26.791712 110.084618 -50.808951 -65.824703 -35.715255 -80.76541 -48.302188 -35.446648 65.962431 31.641114 -16.57433 96.12128 37.806696 -66.495572 82.331508 40.64583 -69.618182 170.36916 8.979156 -145.606126 161.835857 35.145866 -133.922281 18.021745 1.628296 5.081699 -175.767514 -78.97563 -128.31665 34.742092 -38.454174 19.692212 77.444898 -47.722268 76.122184 -158.17866 83.177912 -21.962186 -172.483987 39.43667 -0.0 5.634885 60.867843 -43.911527 99.390991 -3.913458 1.88874 -131.886971 73.815821 -38.981888 157.895685 27.415915 -87.376806 -80.156517 -5.302425 -116.614042 -76.262312 -26.938906 -166.657378
9.5761 74.72710000000001 -12.373099999999999 0.463256 1.86946 10.472561 -2.721943 8.331289 -49.340789 6.247698 -5.47121 63.915754 -12.245547 30.582224 -90.308479 46.396825 7.050884 57.809601 -32.745857 1.312599 -4.465556 -19.100407 4.523522 -26.422297 -135.864795 50.929022 143.642503 -56.986433 35.771812 22.263093 -162.811707 -39.19956 -77.79439 -7.42539 17.621009 0.246432 -155.360635 -5.357882 86.827238 -63.965184 -0.392389 36.615917 -157.346881 -20.378172 115.854014 -7.838369 1.748553 0.858776 -38.968574 46.158647 40.998808 -160.022909 -56.460296 162.964895 -75.610168 -70.941763 -90.216197 28.311753 31.253063 -15.337881 -11.505639 -43.062888 -16.717137 -82.959569 -63.304612 -62.256092 -17.048951 -62.319033 -3.981744 -102.531963 34.582349 77.035752 -177.865004 3.012363 -42.033285 -175.890878 -0.017347 -144.081755 81.723662 35.574087 -44.425567 24.950227 9.629828 -39.183171 14.363029 0.377269 -3.267144 48.712026 60.33718 -40.808273 92.592778 66.919299 -70.038623 -7.112823 -12.363391 -14.855586 144.693306 73.209937 -145.04919 92.779979 62.023581 -84.222135 5.726941 73.798982 -25.54084 -21.648091 42.880885 -12.059795 0.12361 -9.561758 0.744102 8.724246 -33.281196 4.958923 -10.064737 65.343656 -79.421562 -16.029533 -70.747443 67.462891 -0.46077 -3.710158 -0.817397 -7.955722 -43.791224 -5.638401 -12.017558 69.375282 -66.579732 84.944366 79.977027 2.641892
9.4337 74.7663 -12.6144 0.168347 2.022182 10.706777 -3.024988 4.487896 -145.966876 2.391385 4.17715 160.037016 9.350939 25.364478 80.486874 -42.97848 7.295822 -108.786658 -33.234094 0.107263 -0.359415 -19.107032 4.508878 -26.330681 -24.105842 59.620229 28.779215 -111.020492 29.032268 93.224766 2.787576 38.316129 -126.78539 168.096153 -27.944126 142.311667 -73.576708 35.816661 46.8828 -28.468181 6.483971 29.917316 -147.730172 -7.802334 114.668808 -9.81417 5.650651 5.232631 -7.972153 22.765752 16.860075 -150.424932 -77.472015 -175.655996 -2.299683 -1.527617 -1.63402 -146.992094 -24.246667 167.983794 -137.528326 32.5933 -158.620152 29.154176 23.614349 7.427047 82.24441 60.922271 -83.727607 -53.288077 -2.873857 -71.85203 -31.908809 -12.68765 -116.003075 14.911512 39.735426 -2.358148 171.992606 -9.60274 -86.688399 -30.742794 -51.388537 -30.822847 141.520492 15.409927 -107.998791 177.963846 -30.947037 -103.306223 6.89454 -40.104735 11.598271 -19.253964 3.741036 5.533357 159.721549 60.932122 -162.391362 -33.836609 -78.330523 -40.335915 154.186031 -7.358651 137.477364 112.637539 -51.794077 105.933017 -173.324488 85.265727 -6.432373 -168.636234 40.751442 -120.823373 -67.922813 -14.103147 -141.346338 15.285931 44.537815 -142.448343 0.245425 -3.958318 -0.297857 -11.076977 -44.628328 83.390706 66.303556 -5.055199 -84.847816 84.457629 -2.591975 -7.967465
9.2977 74.73490000000001 -12.9036 0.011718 2.224968 10.724996 -1.87872 6.774148 -79.232114 6.972689 -2.028571 93.292073 8.768013 23.994039 69.700166 -41.946453 -0.315953 -100.889196 -32.231734 -1.293786 4.475684 -19.55157 4.647094 -26.503628 -4.346536 33.330752 7.453547 69.855529 -23.637503 64.899351 127.536259 -14.224869 12.195339 -172.842653 28.186086 142.659834 -63.8991 35.188715 39.043011 -139.254364 -30.428803 97.406449 -25.73738 24.523216 19.431942 2.621701 34.034447 10.136026 -9.045211 24.325956 17.882246 -94.11287 -83.178078 -118.390307 -66.937904 73.87538 82.935521 -5.509187 25.761126 9.744429 -52.816257 -63.045183 -57.423176 -157.765764 5.983086 -152.69947 21.36119 40.093119 -24.480237 101.652744 -11.711647 -144.584127 -89.006779 -31.554494 105.354442 134.261481 68.658718 -110.577554 6.242115 6.165231 -3.836718 41.461768 28.274173 -29.048075 -88.865831 -76.899925 -48.628218 173.264907 -31.130581 -115.617545 165.87393 26.465085 -141.976474 14.471038 -1.555324 -0.640051 32.27285 -41.084491 23.631901 -43.784024 49.551785 8.02606 -4.133581 77.314806 -16.976994 -7.369994 -0.899763 -1.574013 2.639868 -9.032902 2.304644 5.729629 -32.399311 10.60622 27.128509 57.554898 45.391164 -161.93522 59.606904 74.494574 173.693511 79.841617 5.434034 173.411831 32.054175 -0.0 -21.824344 72.475783 -103.4338 99.327476 -20.265629 173.375106
9.236 74.72619999999999 -13.168099999999999 -0.094062 2.449875 10.55193 -4.109839 8.716545 0.45433 1.586259 -9.180789 13.543768 -7.334833 21.181874 -25.68602 20.250641 -31.331022 0.988385 -28.981932 -2.262348 8.737708 -19.335602 4.615674 -26.619741 -154.115006 -32.979576 170.508454 120.61885 47.363131 -117.540115 117.629559 -5.559761 -8.840325 -163.599775 46.54398 136.941512 -5.731659 9.937822 6.359719 -120.002897 -2.135922 103.538341 90.63395 -71.960943 44.377427 -72.168509 68.223337 47.872816 11.2727 -9.167764 7.633471 -171.216684 33.643349 146.729787 -145.617893 0.493247 -178.844558 16.783333 71.105119 -12.549742 -136.08097 1.51192 -152.270955 13.837547 12.01812 15.13132 134.913212 42.487208 -135.318196 -163.799105 8.534719 -111.429343 116.764725 -66.551717 -97.965461 -166.452116 -29.271305 -139.812624 6.09721 6.142631 -2.575048 71.932793 28.168531 -58.936201 164.024855 -27.879951 -125.095068 -96.271268 -67.095751 -43.025852 161.875537 34.629454 -138.070592 149.002597 46.099381 -119.712894 43.811528 -56.75927 38.300181 117.726831 -39.489844 159.174226 173.684099 70.776473 153.326404 150.84852 35.548259 150.543768 0.258432 -8.200782 0.121775 9.296777 -32.207601 5.143469 14.596066 59.834173 58.793325 -65.161267 -65.51711 -139.840838 -0.057602 -4.004844 0.069857 -8.474442 -43.996627 -102.380596 -69.891665 2.798119 161.428929 -63.655629 31.452281 -25.266796
9.285599999999999 74.7711 -13.380500000000001 -0.148744 2.591916 10.2972 -2.054035 5.032776 -125.334731 4.645812 2.877917 138.781106 2.242908 38.550853 179.018019 10.301686 53.266907 142.988074 -25.261094 -2.586844 11.50709 -18.246682 4.31544 -26.407197 -139.686709 44.803081 147.9018 127.417127 -54.340289 162.375011 5.608758 27.869689 94.045183 -12.567046 32.4113 1.995556 -166.630144 -8.908279 86.106252 -116.81628 6.622065 57.786629 -135.155189 11.240657 107.569473 -0.362307 -2.830369 8.01792 -161.131051 -20.645482 135.653178 -11.37963 32.67102 27.033983 0.532733 -0.902616 0.497115 -150.210121 11.89313 167.910291 -51.866444 -64.512106 -55.805854 -162.549583 52.401386 -161.154967 152.451053 12.028735 -151.753136 48.640194 -17.329311 -33.740039 70.635853 37.711598 88.270668 -141.288701 -60.209956 -120.494771 78.199281 38.432162 -42.347948 -0.986677 -14.247171 -17.428711 10.619251 6.745806 0.4639 177.548874 -34.165117 -109.60413 63.686245 63.329501 -41.626959 118.847364 42.891038 -101.518603 82.719383 76.343585 -82.524671 88.195372 63.970656 -87.122074 12.321787 0.761038 -1.131458 136.815078 -12.45054 133.473671 74.718459 42.518648 59.911096 -100.897891 13.049329 -133.488876 -58.147262 -6.457197 77.415557 58.203386 -25.000672 2.863436 -179.872812 79.439786 0.0 170.874647 32.862073 16.49 20.61947 61.73328 -66.647612 -142.881647 -73.21993 -50.250151
9.4945 74.89519999999999 -13.490499999999999 -0.249904 1.760445 9.889697 -2.940619 8.471315 -27.122894 4.620401 -7.552689 41.282297 -0.037181 38.250713 -168.309128 21.614701 49.289677 125.597698 -22.236987 -2.573572 13.040841 -17.541353 3.905638 -24.923781 -153.873257 -24.300288 168.821238 127.449285 43.979233 -130.1733 -33.348555 79.606439 131.341681 -9.234232 24.730405 0.498232 177.967386 -20.742295 84.371624 -174.980673 -14.647132 93.483455 -81.169993 39.25711 63.061251 16.282965 2.811813 11.575856 10.728625 -9.306036 6.800837 -177.631547 -3.32835 150.3396 -56.251607 70.258826 74.8241 -159.344894 -0.408846 174.235908 -136.953273 32.534491 -161.497714 16.63933 -4.01005 2.876586 149.558278 20.4071 -149.256653 52.607034 -7.777088 -42.122281 -172.59043 -33.149645 83.681182 6.612889 20.260592 1.599226 -179.566146 -15.530357 -89.629786 35.976376 -20.32289 -4.160675 -31.36274 -63.216011 1.228627 2.921048 23.003616 -1.946296 72.485286 64.357042 -50.888262 85.892885 51.494815 -74.241651 79.76127 76.928048 -81.847294 98.995152 67.72449 -95.637801 94.23529 -52.242757 81.913129 -33.485455 74.663343 -1.344954 18.320131 -3.229249 16.637237 -18.652756 -33.307814 -180.0 -14.313961 -64.525738 70.528626 88.918687 50.345056 13.40453 177.300497 79.02839 2.749688 170.710746 32.46535 56.241324 65.331183 39.453391 166.785184 146.883984 -11.47808 -152.895787
